<svg xmlns="http://www.w3.org/2000/svg" viewBox="0 0 16 16" width="16" height="16">
  <!-- External link box -->
  <path fill="currentColor" d="M2.5 4h3a.5.5 0 0 1 0 1h-3a.5.5 0 0 0-.5.5v8a.5.5 0 0 0 .5.5h8a.5.5 0 0 0 .5-.5v-3a.5.5 0 0 1 1 0v3a1.5 1.5 0 0 1-1.5 1.5h-8A1.5 1.5 0 0 1 1 13.5v-8A1.5 1.5 0 0 1 2.5 4z"/>
  <!-- Right-up arrow -->
  <path fill="currentColor" d="M10 2.5a.5.5 0 0 1 .5-.5h4a.5.5 0 0 1 .5.5v4a.5.5 0 0 1-1 0V3.707l-4.146 4.147a.5.5 0 0 1-.708-.708L13.293 3H10.5a.5.5 0 0 1-.5-.5z"/>
  <!-- Obsidian crystal inside the box -->
  <path fill="#7A3CEF" d="M7.07 5.632l2.496 1.055.884 2.933-3.26 3.363-3.905-3.363L4.294 6.687z"/>
</svg>
